<svg width="130" height="130" viewBox="0 0 130 130" fill="none" xmlns="http://www.w3.org/2000/svg">
<path d="M116.998 55.2509H66.0817V75.2926H95.8734C95.3317 80.1676 92.0817 87.7509 85.04 92.6259C80.7067 95.8759 74.2067 98.0426 66.0817 98.0426C51.9984 98.0426 39.54 88.8342 35.2067 75.2926C34.1234 72.0426 33.5817 68.2509 33.5817 64.4592C33.5817 60.6676 34.1234 56.8759 35.2067 53.6259C35.7484 52.5426 35.7484 51.4592 36.29 50.9176C41.165 39.5426 52.54 31.4176 66.0817 31.4176C76.3734 31.4176 82.8734 35.7509 87.2067 39.5426L102.373 24.3759C93.165 16.2509 80.7067 10.8342 66.0817 10.8342C44.9567 10.8342 26.54 22.7509 17.8734 40.6259C14.0817 48.2092 11.915 56.3342 11.915 65.0009C11.915 73.6676 14.0817 81.7926 17.8734 89.3759C26.54 107.251 44.9567 119.168 66.0817 119.168C80.7067 119.168 93.165 114.293 101.832 106.168C112.123 96.9592 118.082 82.8759 118.082 66.0842C118.082 61.7509 117.54 58.5009 116.998 55.2509Z" stroke="#FF9C00" stroke-width="2" stroke-miterlimit="10" stroke-linecap="round" stroke-linejoin="round"/>
</svg>
