<svg width="130" height="130" viewBox="0 0 130 130" fill="none" xmlns="http://www.w3.org/2000/svg">
<path d="M116.998 55.251H66.0817V75.2926H95.8734C95.3317 80.1676 92.0817 87.751 85.04 92.626C80.7067 95.876 74.2067 98.0426 66.0817 98.0426C51.9984 98.0426 39.54 88.8343 35.2067 75.2926C34.1234 72.0426 33.5817 68.251 33.5817 64.4593C33.5817 60.6676 34.1234 56.876 35.2067 53.626C35.7484 52.5426 35.7484 51.4593 36.29 50.9176C41.165 39.5426 52.54 31.4176 66.0817 31.4176C76.3734 31.4176 82.8734 35.751 87.2067 39.5426L102.373 24.376C93.165 16.251 80.7067 10.8343 66.0817 10.8343C44.9567 10.8343 26.54 22.751 17.8734 40.626C14.0817 48.2093 11.915 56.3343 11.915 65.001C11.915 73.6676 14.0817 81.7926 17.8734 89.376C26.54 107.251 44.9567 119.168 66.0817 119.168C80.7067 119.168 93.165 114.293 101.832 106.168C112.123 96.9593 118.082 82.876 118.082 66.0843C118.082 61.751 117.54 58.501 116.998 55.251Z" stroke="white" stroke-width="2" stroke-miterlimit="10" stroke-linecap="round" stroke-linejoin="round"/>
</svg>
