<svg width="132" height="132" viewBox="0 0 132 132" fill="none" xmlns="http://www.w3.org/2000/svg">
<g clip-path="url(#clip0_1_144)">
<path d="M99.0022 45.0185L87.2743 45.181C82.0903 45.2529 77.1471 47.3812 73.5322 51.0977C69.9174 54.8141 67.9269 59.8144 67.9988 64.9984L68.1614 76.7263L56.4335 76.8889L56.6503 92.5261L68.3781 92.3635L68.8117 123.638L84.4488 123.421L84.0153 92.1467L95.7432 91.9842L99.4357 76.2928L83.7985 76.5096L83.636 64.7817C83.6216 63.7449 84.0197 62.7448 84.7427 62.0015C85.4656 61.2582 86.4543 60.8326 87.4911 60.8182L99.2189 60.6556L99.0022 45.0185Z" stroke="black" stroke-width="2" stroke-linecap="round" stroke-linejoin="round"/>
<path d="M48.7603 68.4087L44.2964 79.898L39.8324 91.3869L32.3675 81.9165L24.9025 72.4459L36.8313 70.4275L48.7603 68.4087Z" stroke="black" stroke-width="2" stroke-miterlimit="10"/>
<path d="M14 101.226L32.3005 83.336" stroke="black" stroke-width="2" stroke-miterlimit="10"/>
<path d="M-0.400009 63.1302L17.0087 45.7215L25.713 54.4258L45.2978 34.841L56.1783 45.7215L99.7 2.19974" stroke="black" stroke-width="2" stroke-miterlimit="10" stroke-linecap="round" stroke-linejoin="round"/>
<path d="M86.6436 2.19974L99.7001 2.19974L99.7001 15.2563" stroke="black" stroke-width="2" stroke-miterlimit="10" stroke-linecap="round" stroke-linejoin="round"/>
</g>
<defs>
<clipPath id="clip0_1_144">
<rect width="130" height="130" fill="white" transform="translate(0 1.80188) rotate(-0.794178)"/>
</clipPath>
</defs>
</svg>
