<svg width="132" height="132" viewBox="0 0 132 132" fill="none" xmlns="http://www.w3.org/2000/svg">
<path d="M80.218 87.5641C99.9798 87.5641 116 71.5439 116 51.782C116 32.0202 99.9798 16 80.218 16C60.4561 16 44.4359 32.0202 44.4359 51.782C44.4359 71.5439 60.4561 87.5641 80.218 87.5641Z" stroke="black" stroke-width="2" stroke-miterlimit="10"/>
<path d="M53.3789 92.4143L39.5852 78.6208C38.7363 77.7719 37.36 77.7719 36.5109 78.6208L19.4935 95.6382C14.8355 100.296 14.8355 107.848 19.4935 112.506C24.1513 117.164 31.7035 117.164 36.3613 112.506L53.3789 95.4886C54.2278 94.6397 54.2278 93.2632 53.3789 92.4143Z" stroke="black" stroke-width="2" stroke-miterlimit="10" stroke-linejoin="round"/>
<path d="M43.1076 82.1455L51.7648 73.4885" stroke="black" stroke-width="2" stroke-miterlimit="10"/>
<path d="M49.856 88.8923L58.5129 80.2351" stroke="black" stroke-width="2" stroke-miterlimit="10"/>
<path d="M80.2163 48.7927C82.9673 48.7927 85.1975 46.5625 85.1975 43.8115C85.1975 41.0605 82.9673 38.8303 80.2163 38.8303C77.4653 38.8303 75.2351 41.0605 75.2351 43.8115C75.2351 46.5625 77.4653 48.7927 80.2163 48.7927Z" stroke="black" stroke-width="2" stroke-miterlimit="10"/>
<path d="M80.2174 74.695C80.2174 74.695 95.1608 60.8761 95.1608 44.6151C95.1608 34.8177 88.4704 28.8682 80.2174 28.8682C71.9644 28.8682 65.2737 34.8177 65.2737 44.6151C65.2737 60.8761 80.2174 74.695 80.2174 74.695Z" stroke="black" stroke-width="2" stroke-miterlimit="10"/>
</svg>
