<svg width="131" height="131" viewBox="0 0 131 131" fill="none" xmlns="http://www.w3.org/2000/svg">
<path d="M102.355 85.9404C118.176 70.1193 118.176 44.468 102.355 28.6468C86.5337 12.8256 60.8825 12.8256 45.0613 28.6467C29.2401 44.4679 29.24 70.1191 45.0612 85.9403C60.8823 101.762 86.5335 101.762 102.355 85.9404Z" stroke="white" stroke-width="2" stroke-miterlimit="10"/>
<path d="M43.3206 103.297L27.7033 87.6797C26.7422 86.7185 25.1839 86.7185 24.2225 87.6797L4.95539 106.947C-0.318464 112.221 -0.318464 120.771 4.95539 126.045C10.229 131.318 18.7796 131.318 24.0532 126.045L43.3206 106.777C44.2817 105.816 44.2817 104.258 43.3206 103.297Z" stroke="white" stroke-width="2" stroke-miterlimit="10" stroke-linejoin="round"/>
<path d="M31.6918 91.6699L41.4935 81.8685" stroke="white" stroke-width="2" stroke-miterlimit="10"/>
<path d="M39.3323 99.3085L49.1337 89.5068" stroke="white" stroke-width="2" stroke-miterlimit="10"/>
<path d="M73.7066 53.9088C76.8214 53.9088 79.3464 51.3838 79.3464 48.2691C79.3464 45.1543 76.8214 42.6293 73.7066 42.6293C70.5919 42.6293 68.0669 45.1543 68.0669 48.2691C68.0669 51.3838 70.5919 53.9088 73.7066 53.9088Z" stroke="white" stroke-width="2" stroke-miterlimit="10"/>
<path d="M73.7074 83.2353C73.7074 83.2353 90.6265 67.5895 90.6265 49.1786C90.6265 38.0859 83.0516 31.3498 73.7074 31.3498C64.3633 31.3498 56.7881 38.0859 56.7881 49.1786C56.7881 67.5895 73.7074 83.2353 73.7074 83.2353Z" stroke="white" stroke-width="2" stroke-miterlimit="10"/>
</svg>
