<svg width="132" height="131" viewBox="0 0 132 131" fill="none" xmlns="http://www.w3.org/2000/svg">
<path d="M102.355 85.9404C118.176 70.1193 118.176 44.4681 102.355 28.6468C86.5338 12.8256 60.8826 12.8256 45.0614 28.6467C29.2402 44.4679 29.2401 70.1191 45.0613 85.9403C60.8824 101.762 86.5336 101.762 102.355 85.9404Z" stroke="#FF9C00" stroke-width="2" stroke-miterlimit="10"/>
<path d="M43.3206 103.297L27.7033 87.6796C26.7422 86.7185 25.1839 86.7185 24.2225 87.6796L4.95539 106.947C-0.318464 112.221 -0.318464 120.771 4.95539 126.045C10.229 131.318 18.7796 131.318 24.0532 126.045L43.3206 106.777C44.2817 105.816 44.2817 104.258 43.3206 103.297Z" stroke="#FF9C00" stroke-width="2" stroke-miterlimit="10" stroke-linejoin="round"/>
<path d="M31.6919 91.6698L41.4936 81.8684" stroke="#FF9C00" stroke-width="2" stroke-miterlimit="10"/>
<path d="M39.3323 99.3085L49.1337 89.5068" stroke="#FF9C00" stroke-width="2" stroke-miterlimit="10"/>
<path d="M73.7066 53.9089C76.8214 53.9089 79.3464 51.3839 79.3464 48.2691C79.3464 45.1544 76.8214 42.6294 73.7066 42.6294C70.5919 42.6294 68.0669 45.1544 68.0669 48.2691C68.0669 51.3839 70.5919 53.9089 73.7066 53.9089Z" stroke="#FF9C00" stroke-width="2" stroke-miterlimit="10"/>
<path d="M73.7074 83.2353C73.7074 83.2353 90.6264 67.5895 90.6264 49.1786C90.6264 38.086 83.0515 31.3499 73.7074 31.3499C64.3633 31.3499 56.7881 38.086 56.7881 49.1786C56.7881 67.5895 73.7074 83.2353 73.7074 83.2353Z" stroke="#FF9C00" stroke-width="2" stroke-miterlimit="10"/>
</svg>
