<svg width="133" height="132" viewBox="0 0 133 132" fill="none" xmlns="http://www.w3.org/2000/svg">
<path d="M15.9336 79.1301L33.3423 61.7214L42.0466 70.4258L61.6314 50.841L72.5119 61.7214L116.034 18.1997" stroke="#FF9C00" stroke-width="2" stroke-miterlimit="10" stroke-linecap="round" stroke-linejoin="round"/>
<path d="M102.977 18.1997L116.034 18.1997L116.034 31.2562" stroke="#FF9C00" stroke-width="2" stroke-miterlimit="10" stroke-linecap="round" stroke-linejoin="round"/>
<path d="M116.034 42.1367L116.034 113.948" stroke="#FF9C00" stroke-width="2" stroke-miterlimit="10" stroke-linecap="round" stroke-linejoin="round"/>
<path d="M15.9336 92.1868L15.9336 113.948" stroke="#FF9C00" stroke-width="2" stroke-miterlimit="10" stroke-linecap="round" stroke-linejoin="round"/>
<path d="M26.814 76.9541L26.814 113.948" stroke="#FF9C00" stroke-width="2" stroke-miterlimit="10" stroke-linecap="round" stroke-linejoin="round"/>
<path d="M37.6946 83.4824L37.6946 113.948" stroke="#FF9C00" stroke-width="2" stroke-miterlimit="10" stroke-linecap="round" stroke-linejoin="round"/>
<path d="M48.5752 79.1301L48.5752 113.948" stroke="#FF9C00" stroke-width="2" stroke-miterlimit="10" stroke-linecap="round" stroke-linejoin="round"/>
<path d="M59.4553 68.2498L59.4553 113.948" stroke="#FF9C00" stroke-width="2" stroke-miterlimit="10" stroke-linecap="round" stroke-linejoin="round"/>
<path d="M70.3359 74.7781L70.3359 113.948" stroke="#FF9C00" stroke-width="2" stroke-miterlimit="10" stroke-linecap="round" stroke-linejoin="round"/>
<path d="M81.2163 70.4258L81.2163 113.948" stroke="#FF9C00" stroke-width="2" stroke-miterlimit="10" stroke-linecap="round" stroke-linejoin="round"/>
<path d="M92.0967 59.5454L92.0967 113.948" stroke="#FF9C00" stroke-width="2" stroke-miterlimit="10" stroke-linecap="round" stroke-linejoin="round"/>
<path d="M102.977 50.8411L102.977 113.948" stroke="#FF9C00" stroke-width="2" stroke-miterlimit="10" stroke-linecap="round" stroke-linejoin="round"/>
</svg>
